#tb 0: 1/15
0,          0,          0,        1,   921600, 0xd08f97c7
0,          1,          1,        1,   921600, 0xc433a85b
0,          2,          2,        1,   921600, 0x7ffeee42
0,          3,          3,        1,   921600, 0xc0ad9f52
0,          4,          4,        1,   921600, 0xb0235112
0,          5,          5,        1,   921600, 0xcbdd9805
0,          6,          6,        1,   921600, 0x5468bdb9
0,          7,          7,        1,   921600, 0x2f0c63fd
0,          8,          8,        1,   921600, 0xf1de04f0
0,          9,          9,        1,   921600, 0x95709ce2
0,         10,         10,        1,   921600, 0x69037c4a
0,         11,         11,        1,   921600, 0x513f8a98
0,         12,         12,        1,   921600, 0x55b82fa1
0,         13,         13,        1,   921600, 0x5c8ace28
0,         14,         14,        1,   921600, 0xb019770a
